<?xml version="1.0" encoding="UTF-8"?><svg id="Layer_2" xmlns="http://www.w3.org/2000/svg" width="63.73" height="86.68" xmlns:xlink="http://www.w3.org/1999/xlink" viewBox="0 0 63.73 86.68"><defs><style>.cls-1{fill:url(#linear-gradient-3);}.cls-2{fill:url(#linear-gradient-2);}.cls-3{fill:url(#linear-gradient);}.cls-4{fill:#1a5c8e;}</style><linearGradient id="linear-gradient" x1="0" y1=".5" x2="1" y2=".5" gradientUnits="userSpaceOnUse"><stop offset=".24" stop-color="#fcee6c"/><stop offset=".28" stop-color="#fcef63"/><stop offset=".34" stop-color="#fcf075"/><stop offset=".47" stop-color="#fdf5a6"/><stop offset=".64" stop-color="#fefdf4"/><stop offset=".67" stop-color="#fff"/><stop offset=".79" stop-color="#fff"/><stop offset="1" stop-color="#fff"/></linearGradient><symbol id="LEMON_DROP" viewBox="0 0 1 1"><circle class="cls-3" cx=".5" cy=".5" r=".5"/></symbol><symbol id="New_Symbol" viewBox="0 0 1 1"><use width="1" height="1" transform="translate(1 1) rotate(-180)" xlink:href="#LEMON_DROP"/></symbol><linearGradient id="linear-gradient-2" x1="-.61" y1="19.57" x2="59.12" y2="19.57" gradientTransform="translate(9.51 25.91) rotate(15)" gradientUnits="userSpaceOnUse"><stop offset="0" stop-color="#ffe355"/><stop offset=".33" stop-color="#ffe355"/><stop offset=".7" stop-color="#ffaf3f"/><stop offset=".99" stop-color="#ff952a"/></linearGradient><linearGradient id="linear-gradient-3" x1="0" y1="10.38" x2="58.18" y2="10.38" gradientUnits="userSpaceOnUse"><stop offset="0" stop-color="#cce0f4"/><stop offset=".04" stop-color="#c2dcf2"/><stop offset=".1" stop-color="#a9d2ee"/><stop offset=".18" stop-color="#7fc2e7"/><stop offset=".28" stop-color="#46abdd"/><stop offset=".34" stop-color="#1e9cd7"/><stop offset=".59" stop-color="#0075be"/><stop offset="1" stop-color="#005b97"/></linearGradient></defs><path class="cls-4" d="M59.02,13.29c.68-.69,1.42-1.42,1.56-2.38s-.76-2.07-1.66-1.72c-2.84,3.67-6.11,7.27-8.57,11.2,2.9,3.75,6.8-5.19,8.67-7.1Z"/><path class="cls-2" d="M41.64,17.33c-7.87,1.43-15.7,3.7-22.5,7.9-6.8,4.2-12.54,10.5-14.92,18.13-.85,2.71-1.26,5.55-1.54,8.37-.66,6.69-.48,13.82,2.93,19.62,1,1.7,2.26,3.26,2.92,5.11.67,1.88.68,3.93,1.19,5.86.51,1.93,1.76,3.9,3.72,4.28,2.17.42,4.14-1.22,6.25-1.89,2.45-.79,5.1-.25,7.66-.04,13.61,1.09,26.81-8.13,32.53-20.53,5.72-12.4,4.68-27.19-.58-39.79-2.56-6.13-11.75-8.1-17.66-7.03Z"/><path class="cls-1" d="M58.18,14c-2.61-.96-2.69-4.53-4.49-6.67-1.09-1.29-2.55-2.22-4.03-3.02C39.39-1.23,26.43-1.44,15.98,3.74c-2.35,1.17-4.63,2.63-6.25,4.7-1.57,2.01-2.45,4.46-3.78,6.64s-3.4,4.18-5.95,4.31c14.89,2.98,30.73,1.05,44.47-5.42,3.81-1.79,8.44-7.14,11.76-4.39"/><use width="1" height="1" transform="translate(22.53 25.34) rotate(15) scale(1.4)" xlink:href="#New_Symbol"/><use width="1" height="1" transform="translate(14.51 44.75) rotate(15) scale(1.4)" xlink:href="#New_Symbol"/><use width="1" height="1" transform="translate(11.14 40.64) rotate(15) scale(1.4)" xlink:href="#New_Symbol"/><use width="1" height="1" transform="translate(14.33 33.94) rotate(15) scale(1.4)" xlink:href="#New_Symbol"/><use width="1" height="1" transform="translate(20.78 34.42) rotate(15) scale(1.4)" xlink:href="#New_Symbol"/><use width="1" height="1" transform="translate(28.87 28.38) rotate(15) scale(1.4)" xlink:href="#New_Symbol"/><use width="1" height="1" transform="translate(34.41 24.33) rotate(15) scale(1.4)" xlink:href="#New_Symbol"/><use width="1" height="1" transform="translate(37.75 29.01) rotate(15) scale(1.4)" xlink:href="#New_Symbol"/><use width="1" height="1" transform="translate(35.93 38.55) rotate(15) scale(1.4)" xlink:href="#New_Symbol"/><use width="1" height="1" transform="translate(33.9 33.78) rotate(15) scale(1.4)" xlink:href="#New_Symbol"/><use width="1" height="1" transform="translate(29.18 35.84) rotate(15) scale(1.4)" xlink:href="#New_Symbol"/></svg>