<svg width="76" height="72" viewBox="0 0 76 72" fill="none" xmlns="http://www.w3.org/2000/svg">
<path d="M52.5917 69.6499V44.8206H59.3461L62.0168 32.0629H52.5917V29.045C52.5917 28.2932 52.7605 28.1891 52.8327 28.1445C53.0794 27.9916 53.787 27.7357 55.7511 27.7357H61.5324V17.8611L60.8103 17.2335C59.6116 16.1929 56.631 14.977 52.1751 14.977C48.0891 14.977 44.7119 16.4318 42.4078 19.1843C40.3371 21.6574 39.2417 25.0672 39.2417 29.044V32.0619H32.0896V44.8195H39.2417V69.6488H9.26116C5.54734 69.6488 2.52562 66.7626 2.52562 63.2137V8.54298C2.52562 4.99518 5.54734 2.10788 9.26116 2.10788H66.4793C70.1932 2.10788 73.2149 4.99412 73.2149 8.54298V63.2148C73.2149 66.7626 70.1932 69.6499 66.4793 69.6499H52.5917Z" fill="#FDCC26"/>
<path d="M66.4782 4.21679C68.9767 4.21679 71.0086 6.15794 71.0086 8.54403V63.2158C71.0086 65.6019 68.9767 67.543 66.4782 67.543H54.7958V46.9295H61.1536L61.8624 43.541L63.6509 34.998L64.7063 29.9551H54.7958V29.8712C55.049 29.8552 55.3634 29.8436 55.75 29.8436H63.7365V16.9288L62.2923 15.6747C61.5346 15.0163 58.5673 12.8702 52.174 12.8702C49.7966 12.8702 47.5992 13.3045 45.644 14.1604C43.701 15.011 42.0323 16.2587 40.6848 17.8685C38.2974 20.7197 37.0354 24.584 37.0354 29.045V29.9551H29.8833V46.9284H37.0354V67.542H9.26006C6.76159 67.542 4.72971 65.6008 4.72971 63.2148V8.54296C4.72971 6.15688 6.76159 4.21573 9.26006 4.21573H66.4782M66.4782 0.00106192H9.26006C4.32533 0.00106192 0.319336 3.82814 0.319336 8.54403V63.2158C0.319336 67.9317 4.32422 71.7588 9.26006 71.7588H66.4782C71.413 71.7588 75.419 67.9317 75.419 63.2158V8.54296C75.419 3.82708 71.4141 0 66.4782 0V0.00106192ZM34.2936 42.7127V34.1697H41.4458V29.044C41.4458 22.2096 45.0218 17.0849 52.174 17.0849C57.3598 17.0849 59.3261 18.7935 59.3261 18.7935V25.6278H55.75C51.924 25.6278 50.3854 26.4816 50.3854 29.045V34.1708H59.3261L57.5375 42.7138H50.3854V68.3416H41.4447V42.7138H34.2925L34.2936 42.7127Z" fill="#FDCC26"/>
</svg>
