<svg width="77" height="74" viewBox="0 0 77 74" fill="none" xmlns="http://www.w3.org/2000/svg">
<path d="M23.1885 1C10.9506 1 1 10.5114 1 22.2093V51.576C1 63.2739 10.9506 72.7853 23.1885 72.7853H53.9111C66.1491 72.7853 76.0996 63.2739 76.0996 51.576V22.2093C76.0996 10.5114 66.1491 1 53.9111 1H23.1885ZM59.0303 14.0518C60.9077 14.0518 62.4441 15.5204 62.4441 17.315C62.4441 19.1096 60.9077 20.5782 59.0303 20.5782C57.1528 20.5782 55.6164 19.1096 55.6164 17.315C55.6164 15.5204 57.1528 14.0518 59.0303 14.0518ZM38.5493 18.9461C48.9097 18.9461 57.3239 26.9889 57.3239 36.8921C57.3239 46.7954 48.9097 54.8382 38.5493 54.8382C28.1888 54.8382 19.7746 46.7954 19.7746 36.8921C19.7746 26.9889 28.1888 18.9461 38.5493 18.9461ZM38.5493 22.2093C30.084 22.2093 23.1885 28.8005 23.1885 36.8921C23.1885 44.9838 30.084 51.575 38.5493 51.575C47.0145 51.575 53.91 44.9838 53.91 36.8921C53.91 28.8005 47.0145 22.2093 38.5493 22.2093Z" fill="#FDCC26" stroke="#FFF6ED" stroke-miterlimit="10"/>
</svg>
