<svg width="76" height="72" viewBox="0 0 76 72" fill="none" xmlns="http://www.w3.org/2000/svg">
<path d="M17.8803 69.6764C9.23734 69.6764 2.20519 62.9546 2.20519 54.693V17.0913C2.20519 8.82969 9.23734 2.10788 17.8803 2.10788H57.2182C65.8612 2.10788 72.8933 8.82969 72.8933 17.0913V54.693C72.8933 62.9546 65.8612 69.6764 57.2182 69.6764H17.8803ZM14.5231 53.166C15.0097 53.3115 15.523 53.3827 16.0918 53.3827H59.0057C59.5745 53.3827 60.0877 53.3115 60.5743 53.166L63.1739 52.3898L63.4738 52.6754L63.6093 52.2592L64.0526 52.1264L63.7482 51.8355L64.5592 49.3559C64.7114 48.8908 64.7858 48.4002 64.7858 47.8555V23.9277C64.7858 23.383 64.7114 22.8924 64.5592 22.4273L63.7482 19.9499L64.0537 19.6579L63.6093 19.5251L63.4738 19.1089L63.1739 19.3945L60.5743 18.6183C60.0877 18.4728 59.5745 18.4027 59.0057 18.4027H16.0918C15.523 18.4027 15.0097 18.4738 14.5231 18.6183L11.9258 19.3945L11.6247 19.1067L11.4881 19.5251L11.0448 19.6579L11.3492 19.9488L10.5382 22.4284C10.386 22.8935 10.3116 23.3841 10.3116 23.9288V47.8565C10.3116 48.4013 10.386 48.8919 10.5382 49.357L11.3503 51.8387L11.0482 52.1286L11.4881 52.2602L11.6247 52.6786L11.9258 52.3908L14.5231 53.1671V53.166Z" fill="#FDCC26"/>
<path d="M57.2182 4.21573C64.6458 4.21573 70.6893 9.99245 70.6893 17.0923V54.6941C70.6893 61.7939 64.6458 67.5707 57.2182 67.5707H17.8803C10.4527 67.5707 4.40925 61.7939 4.40925 54.6941V17.0912C4.40925 9.99139 10.4527 4.21467 17.8803 4.21467H57.2182M9.72615 17.8431L6.90883 18.6851L8.8463 20.5371L8.43303 21.8008C8.2164 22.4634 8.10642 23.1791 8.10642 23.9288V47.8565C8.10642 48.6062 8.2164 49.3219 8.43303 49.9846L8.84741 51.2514L6.9144 53.1012L9.72615 53.9412L10.6049 56.6299L12.5401 54.7822L13.8655 55.1783C14.5587 55.3854 15.3074 55.4905 16.0929 55.4905H59.0068C59.7911 55.4905 60.541 55.3854 61.2342 55.1783L62.5628 54.7812L64.497 56.6246L65.3746 53.9412L68.1919 53.1002L66.2544 51.2482L66.6677 49.9846C66.8843 49.3219 66.9943 48.6062 66.9943 47.8565V23.9288C66.9943 23.1791 66.8843 22.4634 66.6677 21.8008L66.2556 20.5392L68.1952 18.6862L65.3735 17.8431L64.4959 15.1596L62.5617 17.0031L61.2331 16.606C60.5398 16.3989 59.7911 16.2938 59.0057 16.2938H16.0917C15.3074 16.2938 14.5576 16.3989 13.8643 16.606L12.539 17.002L10.6038 15.1543L9.72504 17.8431M57.2182 0H17.8803C8.02532 0 0 7.67221 0 17.0912V54.693C0 64.1131 8.02643 71.7843 17.8803 71.7843H57.2182C67.0732 71.7843 75.0985 64.1121 75.0985 54.693V17.0912C75.0985 7.67115 67.0721 0 57.2182 0ZM37.5404 39.3114C35.8018 39.3114 34.0632 38.6786 32.7401 37.4138L15.1808 20.6295C15.4674 20.5445 15.7707 20.5095 16.0917 20.5095H59.0057C59.3278 20.5095 59.6311 20.5445 59.9166 20.6295L42.3396 37.4138C41.0165 38.6786 39.2779 39.3114 37.5393 39.3114H37.5404ZM62.4562 48.7273L48.9929 35.8921L62.4562 23.057C62.5451 23.3309 62.5817 23.6208 62.5817 23.9277V47.8555C62.5817 48.1634 62.5451 48.4533 62.4562 48.7262V48.7273ZM12.6423 48.7273C12.5535 48.4533 12.5168 48.1634 12.5168 47.8565V23.9288C12.5168 23.6208 12.5535 23.3309 12.6423 23.058L26.0878 35.8932L12.6423 48.7283V48.7273ZM37.5315 42.7286C40.1955 42.7286 42.8417 41.7729 44.8614 39.8413L46.4711 38.3026L59.9166 51.1548C59.63 51.2397 59.3267 51.2748 59.0057 51.2748H16.0917C15.7696 51.2748 15.4663 51.2397 15.1808 51.1548L28.6085 38.3026L30.2005 39.8413C32.2213 41.7729 34.8841 42.7286 37.5304 42.7286H37.5315Z" fill="#FDCC26"/>
</svg>
