<svg width="186" height="65" viewBox="0 0 186 65" fill="none" xmlns="http://www.w3.org/2000/svg">
<path d="M0.24 16.6C0.538667 15.5333 1.22133 15 2.288 15C3.35467 15 4.05867 16.0667 4.4 18.2H4.656L7.6 17.56C8.96533 17.56 10.288 18.84 11.568 21.4H11.824C13.7013 18.456 15.6213 16.984 17.584 16.984C21.7653 17.752 23.856 20.4827 23.856 25.176L23.984 27.416L23.408 40.344V41.56C23.408 42.6267 22.7467 43.2453 21.424 43.416C20.1013 43.416 19.44 41.8587 19.44 38.744L20.208 27.16C20.208 22.8933 19.2053 20.76 17.2 20.76C16.048 20.76 14.6613 23.5547 13.04 29.144C12.2293 35.544 11.568 38.744 11.056 38.744C10.3307 38.744 9.968 38.8933 9.968 39.192C8.64533 39.0213 7.984 38.3387 7.984 37.144L8.816 29.4C8.688 24.0667 8.15467 21.4 7.216 21.4H7.024C5.95733 22.2107 5.424 23.8107 5.424 26.2V29.592L5.168 39.384C4.86933 40.4507 4.208 40.984 3.184 40.984C2.288 40.984 1.712 40.2373 1.456 38.744L1.2 31.192L1.584 24.984C1.328 21.784 0.88 18.9893 0.24 16.6ZM38.0245 14.296C39.9018 14.296 40.8405 15.0427 40.8405 16.536L40.2645 17.752L39.8805 29.464C39.8805 34.7547 40.9472 38.04 43.0805 39.32L43.2085 40.28C43.0805 41.5173 42.5045 42.136 41.4805 42.136H41.0965C37.8965 39.96 36.2965 36.632 36.2965 32.152H35.8485C34.1418 36.9307 32.0725 39.32 29.6405 39.32C27.3792 38.68 26.2485 36.9947 26.2485 34.264C26.2485 28.248 28.6592 22.2533 33.4805 16.28C35.1018 14.9573 36.6165 14.296 38.0245 14.296ZM30.2805 31.704L30.0245 33.496V34.712H30.6645C33.8645 26.7333 35.4645 21.8693 35.4645 20.12H35.2085C32.7338 22.8933 31.0912 26.7547 30.2805 31.704ZM51.72 13.784C54.408 13.784 56.008 15.6613 56.52 19.416V19.992C56.52 24.1307 54.3867 27.928 50.12 31.384C52.5947 33.816 56.9253 35.032 63.112 35.032C64.0507 35.3307 64.52 35.992 64.52 37.016C64.52 38.168 63.7733 38.744 62.28 38.744C58.0987 38.744 53.704 37.6773 49.096 35.544V37.4C49.096 41.7947 48.1573 43.992 46.28 43.992C44.9573 43.992 44.296 41.4533 44.296 36.376V31.384L44.104 29.592L44.552 27.544L44.104 21.4V21.144C44.104 19.992 44.7013 19.2027 45.896 18.776C47.56 15.448 49.5013 13.784 51.72 13.784ZM48.52 27.8C49.7573 27.8 51.144 25.5813 52.68 21.144V18.392L51.912 17.56H51.336C49.4587 18.84 48.52 22.2533 48.52 27.8ZM75.479 14.424C77.4417 14.424 78.423 15.3627 78.423 17.24C78.679 17.24 78.807 17.56 78.807 18.2H79.063L78.807 20.056L79.063 32.984L78.679 43.224C82.519 43.224 85.1003 46.04 86.423 51.672C86.423 52.824 85.6337 53.4853 84.055 53.656C83.3297 53.656 82.519 52.056 81.623 48.856C80.7697 47.6187 79.7883 47 78.679 47H78.423C77.0577 56.088 75.863 60.632 74.839 60.632C73.6017 62.8933 71.8097 64.024 69.463 64.024C66.007 63.2133 64.279 61.4853 64.279 58.84V58.456C64.279 54.4453 67.1377 50.0933 72.855 45.4L74.839 44.184L75.095 37.272V35.672H74.839C73.3883 37.5067 72.0017 38.424 70.679 38.424H70.295C67.351 38.424 65.6657 36.1627 65.239 31.64V30.232C65.239 24.7707 67.2443 20.0347 71.255 16.024C72.4923 14.9573 73.9003 14.424 75.479 14.424ZM69.079 29.4V32.472C69.2497 33.88 69.5697 34.584 70.039 34.584H70.679C71.8737 34.584 73.3457 30.1893 75.095 21.4V18.2C72.535 18.2 70.5297 21.9333 69.079 29.4ZM68.055 58.584C68.2257 59.6507 68.823 60.184 69.847 60.184C71.895 60.184 73.367 56.536 74.263 49.24H73.879C69.9963 52.6107 68.055 55.7253 68.055 58.584ZM83.641 3.672C84.8357 3.672 85.433 5.12266 85.433 8.024L86.201 19.032H86.457L89.657 17.816C93.241 17.816 95.417 21.4853 96.185 28.824C96.4837 30.9147 96.633 33.9867 96.633 38.04V43.224C96.633 44.8453 96.0357 45.656 94.841 45.656H94.585C93.433 45.4853 92.857 44.8667 92.857 43.8V37.784C92.857 28.1413 91.9183 22.808 90.041 21.784H89.657C88.377 21.784 87.4383 23.7467 86.841 27.672V31.256C86.841 37.656 86.3077 40.856 85.241 40.856L84.025 40.984C82.8303 40.984 82.233 39.2133 82.233 35.672C82.361 31.9173 82.617 28.8453 83.001 26.456L81.657 5.4C81.657 4.29067 82.3183 3.71467 83.641 3.672ZM103.928 16.024C105.635 16.0667 108.515 19.0533 112.569 24.984L112.696 26.072C112.696 27.2667 109.774 28.184 103.928 28.824L103.736 29.016V29.272C104.632 33.112 105.571 35.032 106.552 35.032H107.32C108.686 35.032 110.755 33.56 113.528 30.616H113.913C114.766 30.616 115.427 31.2347 115.896 32.472C115.896 33.496 114.104 35.2667 110.521 37.784C109.582 38.3387 108.451 38.744 107.128 39C103.672 39 101.262 35.7573 99.8965 29.272C97.9338 28.9733 96.9525 28.1627 96.9525 26.84C96.9525 25.9013 97.6778 25.2827 99.1285 24.984V25.24L99.7685 24.984V23.384C99.7685 18.4773 101.155 16.024 103.928 16.024ZM104.312 20.632H103.736L103.48 23V24.984H103.736C106.126 24.8987 107.32 24.6427 107.32 24.216C106.211 22.552 105.208 21.3573 104.312 20.632ZM125.332 13.784C128.02 13.784 129.62 15.6613 130.132 19.416V19.992C130.132 24.1307 127.999 27.928 123.732 31.384C126.207 33.816 130.537 35.032 136.724 35.032C137.663 35.3307 138.132 35.992 138.132 37.016C138.132 38.168 137.385 38.744 135.892 38.744C131.711 38.744 127.316 37.6773 122.708 35.544V37.4C122.708 41.7947 121.769 43.992 119.892 43.992C118.569 43.992 117.908 41.4533 117.908 36.376V31.384L117.716 29.592L118.164 27.544L117.716 21.4V21.144C117.716 19.992 118.313 19.2027 119.508 18.776C121.172 15.448 123.113 13.784 125.332 13.784ZM122.132 27.8C123.369 27.8 124.756 25.5813 126.292 21.144V18.392L125.524 17.56H124.948C123.071 18.84 122.132 22.2533 122.132 27.8ZM139.555 5.656C141.176 5.99733 141.987 6.72267 141.987 7.832C141.56 9.02667 140.878 9.624 139.939 9.624C138.36 9.32533 137.571 8.536 137.571 7.256C137.998 6.18933 138.659 5.656 139.555 5.656ZM141.987 14.616C142.67 14.616 143.246 15.2347 143.715 16.472L143.139 21.016V24.024C143.139 27.5227 143.736 32.1093 144.931 37.784C144.504 38.5947 143.779 39 142.755 39C141.006 39 139.854 33.88 139.299 23.64V21.4C139.299 16.8773 140.195 14.616 141.987 14.616ZM154.304 0.151997C155.499 0.407998 156.096 1.00533 156.096 1.944L155.712 4.76V5.592C155.712 7.46933 155.926 9.45333 156.352 11.544H156.48C161.43 10.0507 164.502 9.304 165.697 9.304C166.934 9.64533 167.552 10.264 167.552 11.16C167.552 12.6107 166.08 13.336 163.136 13.336L156.48 15.704C156.48 21.464 157.099 29.2933 158.336 39.192C158.08 40.344 157.462 40.92 156.48 40.92H156.352C154.859 40.92 154.112 39 154.112 35.16C153.558 32.3013 153.088 26.0933 152.704 16.536H151.552C147.542 16.28 145.536 15.3413 145.536 13.72C145.536 13.2507 145.984 12.6747 146.88 11.992H147.52L150.464 12.76H152.512L151.936 4.76C151.936 1.688 152.726 0.151997 154.304 0.151997ZM179.998 14.296C181.876 14.296 182.814 15.0427 182.814 16.536L182.238 17.752L181.854 29.464C181.854 34.7547 182.921 38.04 185.055 39.32L185.182 40.28C185.054 41.5173 184.478 42.136 183.455 42.136H183.07C179.87 39.96 178.27 36.632 178.27 32.152H177.822C176.116 36.9307 174.046 39.32 171.614 39.32C169.353 38.68 168.222 36.9947 168.222 34.264C168.222 28.248 170.633 22.2533 175.454 16.28C177.076 14.9573 178.59 14.296 179.998 14.296ZM172.254 31.704L171.998 33.496V34.712H172.638C175.838 26.7333 177.438 21.8693 177.438 20.12H177.182C174.708 22.8933 173.065 26.7547 172.254 31.704Z" fill="#648EC5"/>
</svg>
